<?xml version="1.0" standalone="no"?>
<!DOCTYPE svg PUBLIC "-//W3C//DTD SVG 20010904//EN"
 "http://www.w3.org/TR/2001/REC-SVG-20010904/DTD/svg10.dtd">
<svg version="1.0" xmlns="http://www.w3.org/2000/svg"
 width="512.000000pt" height="512.000000pt" viewBox="0 0 512.000000 512.000000"
 preserveAspectRatio="xMidYMid meet">
<metadata>
Created by potrace 1.16, written by Peter Selinger 2001-2019
</metadata>
<g transform="translate(0.000000,512.000000) scale(0.100000,-0.100000)"
fill="#000000" stroke="none">
<path d="M4387 3973 c-5 -4 -59 -6 -120 -4 l-113 2 4 -100 4 -101 -331 0 -331
0 0 -25 c0 -20 -5 -25 -25 -25 -28 0 -34 -24 -9 -34 9 -3 279 -6 600 -6 512 0
584 -2 584 -15 0 -13 -81 -15 -668 -15 l-668 0 4 -35 c3 -24 15 -44 39 -66 26
-22 37 -41 40 -70 l6 -39 -60 0 c-67 0 -88 12 -72 42 15 27 -22 79 -146 204
-115 116 -161 142 -305 174 -120 27 -215 24 -283 -9 -26 -12 -87 -58 -135
-101 -49 -42 -98 -83 -110 -89 -21 -11 -22 -9 -22 22 0 18 -6 42 -14 53 -14
18 -31 19 -295 22 -347 4 -321 16 -321 -158 l0 -120 -560 0 c-472 0 -560 -2
-560 -14 0 -8 7 -16 15 -20 9 -3 15 -18 15 -37 0 -18 8 -41 18 -52 17 -20 16
-20 -97 -15 -164 8 -151 39 -151 -351 0 -268 2 -320 15 -331 10 -8 57 -11 155
-11 l140 2 0 -161 0 -160 -65 0 -65 0 0 -145 0 -145 65 0 65 0 0 -335 c0 -324
-1 -335 -19 -335 -11 0 -29 -15 -42 -36 -16 -27 -40 -45 -85 -65 -35 -16 -70
-29 -79 -29 -8 0 -15 -7 -15 -15 0 -13 89 -15 738 -15 505 -1 732 -4 720 -11
-10 -5 -18 -14 -18 -19 0 -6 276 -10 733 -10 728 1 732 1 708 20 -23 20 -19
20 740 22 792 3 814 4 740 43 -20 10 -31 23 -31 38 0 45 -46 77 -112 77 l-48
0 0 760 0 760 76 0 c67 0 76 -2 81 -20 7 -25 70 -29 80 -5 3 9 2 99 -2 200
l-7 185 -119 0 c-73 0 -119 4 -119 10 0 6 36 10 89 10 49 0 102 3 120 6 61 12
18 24 -90 24 l-109 0 0 115 c0 114 0 115 25 121 14 3 25 9 25 13 0 4 13 21 30
37 24 24 29 37 30 77 0 38 -3 47 -17 49 -10 1 -25 2 -33 4 -8 1 -23 2 -32 3
-9 1 -18 11 -20 24 -3 19 -10 22 -50 25 l-48 3 0 100 c0 98 0 99 -24 99 -13 0
-31 2 -38 5 -8 3 -17 2 -21 -2z m37 -23 c25 -9 26 -12 26 -95 0 -101 -18 -115
-22 -17 l-3 67 -35 3 c-19 2 -38 9 -42 15 -11 18 -17 -9 -21 -88 -3 -68 -3
-68 -5 18 l-2 87 29 0 c17 0 33 5 36 10 8 12 8 12 39 0z m-124 -115 l0 -65
-60 0 -60 0 0 65 0 65 60 0 60 0 0 -65z m-1486 -1 c61 -15 129 -36 151 -47 46
-23 133 -104 216 -200 101 -116 65 -97 -73 40 -143 140 -178 164 -295 194
-108 27 -194 25 -263 -7 -65 -30 -56 -17 14 20 63 33 109 33 250 0z m26 -50
c59 -18 93 -37 157 -89 80 -64 212 -200 262 -271 25 -35 25 -35 95 -32 l71 3
5 70 5 70 518 3 517 2 0 -585 0 -585 -452 0 c-703 0 -563 -13 355 -33 l97 -2
0 -482 0 -483 -709 0 c-521 0 -712 3 -717 11 -4 7 -8 150 -9 318 -2 259 -1
274 4 99 5 -177 9 -210 23 -228 17 -20 28 -20 556 -20 l539 0 23 25 c21 22 23
35 26 142 2 65 0 165 -5 223 -8 98 -8 91 -10 -108 0 -117 -5 -222 -11 -232 -5
-10 -23 -22 -38 -28 -18 -6 -226 -11 -535 -11 -497 -2 -506 -2 -527 19 -19 19
-20 32 -20 250 0 223 1 230 20 230 19 0 20 -8 22 -227 l3 -227 25 -13 c32 -16
960 -19 991 -3 18 10 19 24 19 240 0 154 3 230 10 230 18 0 61 53 91 113 l29
57 51 0 50 0 -3 -349 c-3 -335 -4 -351 -24 -377 -11 -15 -33 -37 -48 -48 -27
-21 -39 -21 -618 -24 -433 -2 -594 1 -604 9 -8 6 -15 23 -15 38 -2 25 -2 25
-6 2 -3 -12 -2 -34 1 -47 l6 -24 591 0 c508 0 595 2 626 15 50 21 72 42 94 90
17 36 19 72 19 398 l0 357 -52 0 c-43 0 -57 5 -81 28 l-28 27 -324 4 c-315 3
-325 2 -358 -18 -32 -20 -48 -21 -244 -21 l-209 0 -17 -35 c-15 -31 -21 -35
-57 -35 -23 0 -62 10 -88 24 -119 59 -248 88 -392 88 -110 0 -175 -14 -328
-73 -125 -47 -145 -49 -178 -19 -13 13 -24 20 -24 15 0 -5 -10 0 -23 11 -21
18 -41 19 -640 14 -580 -5 -619 -4 -634 13 -15 16 14 17 600 17 402 0 617 3
617 10 0 6 -219 11 -622 12 l-623 3 -3 483 -2 482 752 0 753 0 75 69 c93 84
176 139 278 182 65 28 90 33 157 33 75 1 86 -2 175 -45 109 -53 199 -118 267
-192 51 -57 47 -48 -12 26 -71 89 -223 185 -349 222 -141 41 -350 -42 -538
-214 l-66 -61 -756 0 c-497 0 -756 3 -756 10 0 7 259 10 758 10 l758 0 64 66
c115 116 289 219 417 245 49 10 72 10 117 0 135 -30 276 -133 387 -282 l51
-69 144 0 144 0 0 65 0 65 456 0 c282 0 453 4 449 9 -3 6 -189 10 -465 11
l-460 1 0 -66 0 -65 -110 0 c-125 0 -119 -4 -178 98 -70 119 -212 261 -314
313 -96 50 -218 59 -293 21 -96 -48 -248 -163 -337 -253 l-97 -99 -513 1
c-282 1 -634 5 -783 8 -200 5 -67 8 510 9 l779 2 67 69 c36 37 114 106 173
152 58 46 127 100 152 120 26 20 61 41 78 47 42 14 136 5 226 -24z m-602 -79
c3 -20 -2 -20 -240 -17 -134 2 -258 0 -275 -3 l-33 -6 0 -99 c0 -82 -3 -100
-15 -100 -12 0 -15 18 -15 106 0 58 5 114 10 125 10 19 22 19 288 17 268 -3
277 -4 280 -23z m0 -56 c12 -19 7 -27 -55 -94 l-68 -74 -200 2 -200 2 -3 79
c-2 44 -1 85 2 93 4 10 56 13 258 13 245 0 254 -1 266 -21z m2370 -67 c-3 -16
-52 -17 -611 -20 -533 -2 -607 0 -607 13 0 13 52 15 393 17 215 2 490 4 610 5
199 1 218 0 215 -15z m-88 -934 c-1 -961 -7 -1278 -23 -1278 -7 0 -8 261 -4
793 4 435 7 924 7 1085 0 194 3 292 10 292 7 0 10 -284 10 -892z m-3913 653
c18 -23 16 -34 -4 -26 -10 3 -66 9 -125 12 l-108 6 -2 -99 c-1 -54 0 -195 2
-311 2 -141 -1 -213 -8 -213 -5 0 -13 7 -16 16 -3 9 -6 149 -6 312 0 252 2
298 15 312 14 15 31 17 128 12 86 -4 115 -9 124 -21z m-62 -43 c-22 -5 -64 -7
-92 -4 -34 3 -53 1 -53 -6 0 -7 37 -9 110 -6 l110 4 0 -28 0 -28 -85 0 -85 0
0 -230 0 -230 85 0 c84 0 85 0 85 -25 l0 -25 -115 0 -115 0 0 288 c0 159 3
292 7 295 3 4 47 7 97 6 81 -1 87 -2 51 -11z m4029 -114 c-7 -42 -16 -79 -19
-82 -3 -3 -5 31 -5 76 0 73 2 82 19 82 17 0 17 -4 5 -76z m186 1 c0 -62 -3
-75 -16 -75 -11 0 -14 5 -10 16 4 10 1 14 -6 12 -9 -3 -14 -34 -16 -96 l-3
-92 -74 0 c-70 0 -75 2 -80 23 -4 13 2 45 13 73 11 27 22 69 26 94 4 25 11 62
17 83 l10 37 69 0 70 0 0 -75z m-4140 -94 l0 -108 -31 -7 c-17 -3 -51 -6 -75
-6 l-44 0 0 115 0 115 75 0 75 0 0 -109z m4160 -78 c0 -84 -9 -109 -34 -100
-13 5 -16 23 -16 92 0 84 0 85 25 85 25 0 25 -1 25 -77z m-4160 -143 l0 -81
-72 3 -73 3 -3 78 -3 77 76 0 75 0 0 -80z m2133 -544 c70 -16 249 -94 262
-115 13 -23 -2 -21 -48 4 -25 14 -81 39 -124 54 -213 78 -416 65 -680 -44 -87
-37 -103 -41 -103 -26 0 21 259 122 362 140 70 13 246 6 331 -13z m1129 4
l290 0 -7 -67 c-3 -38 -8 -85 -11 -105 l-6 -38 -473 0 -473 0 41 90 41 90 114
0 c99 0 117 3 140 20 14 12 32 18 40 15 7 -3 144 -5 304 -5z m372 -20 c5 -5
-10 -40 -33 -82 l-41 -73 0 72 c0 93 5 106 39 98 14 -4 30 -10 35 -15z m-2264
-30 c32 -27 33 -31 18 -40 -22 -13 -23 -39 -3 -86 10 -24 11 -34 3 -32 -15 5
-99 169 -92 180 10 16 41 7 74 -22z m1230 13 c0 -5 -21 -44 -48 -88 -42 -71
-50 -80 -77 -80 -28 0 -29 1 -30 50 -1 37 6 60 24 88 23 35 26 37 77 37 30 0
54 -3 54 -7z m-2542 -15 c7 -7 12 -40 12 -80 l0 -68 -65 0 -65 0 0 73 c0 41 3
77 7 80 11 12 98 8 111 -5z m1228 -71 l31 -82 -401 -5 c-221 -3 -392 -8 -381
-12 11 -5 196 -7 410 -6 288 1 390 -2 393 -10 3 -9 -103 -12 -421 -12 -234 0
-432 3 -441 6 -13 5 -16 22 -16 87 0 93 -10 96 -19 5 l-6 -63 -67 79 c-38 43
-68 83 -68 88 0 4 215 8 478 8 l477 0 31 -83z m-989 34 c13 -14 35 -46 50 -71
l28 -45 5 -246 c5 -225 7 -249 24 -268 19 -21 24 -21 499 -21 l480 0 -7 -31
c-3 -17 -6 -44 -6 -60 l0 -29 -524 0 -523 0 -34 23 c-18 12 -44 38 -56 56 -23
34 -23 38 -23 352 0 282 2 319 16 319 8 0 12 5 9 10 -3 6 -14 10 -24 10 -11 0
-29 9 -42 20 l-24 19 65 -6 c54 -5 69 -10 87 -32z m1958 -2 c78 -32 140 -67
132 -75 -3 -3 -38 11 -78 32 -41 20 -101 47 -134 61 -43 17 -50 22 -25 17 19
-3 67 -19 105 -35z m-2081 -5 c14 -5 16 -44 16 -325 0 -249 3 -327 14 -353 19
-46 81 -94 130 -101 23 -3 274 -6 559 -8 l517 -2 0 346 c0 278 -3 355 -15 388
-8 22 -11 41 -7 41 4 0 18 3 30 7 22 5 23 4 11 -15 -11 -17 -11 -26 0 -49 17
-36 16 -524 -1 -534 -7 -5 -7 -9 1 -13 14 -9 15 -160 1 -187 -10 -18 -29 -19
-685 -19 l-675 0 0 335 c0 324 1 335 19 335 52 0 51 8 51 -288 0 -151 3 -272
7 -268 4 3 5 166 4 361 -1 195 0 355 2 355 3 0 12 -3 21 -6z m1936 -14 c118
-25 202 -55 235 -86 l25 -23 0 -361 c0 -284 -3 -361 -12 -358 -22 8 -27 75
-27 386 l-1 304 -28 27 c-47 48 -240 101 -368 101 -128 0 -325 -51 -409 -106
-36 -24 -45 -72 -45 -250 0 -142 2 -165 18 -185 12 -14 25 -20 35 -16 18 7 20
32 17 292 l-1 131 28 14 c15 8 31 16 36 18 4 2 7 -159 7 -357 l0 -361 -65 0
-65 0 0 118 c0 74 -5 132 -14 157 -16 46 -17 405 -1 439 12 27 138 82 252 110
125 31 252 33 383 6z m305 -97 c-6 -32 -8 -34 -21 -21 -13 13 -13 18 3 46 21
36 28 27 18 -25z m-459 27 c12 0 14 -59 14 -380 l0 -381 -147 3 -148 3 -3 138
c-2 89 1 137 8 137 6 0 10 -46 10 -125 l0 -125 130 0 130 0 0 362 0 361 -114
-6 c-63 -4 -121 -10 -130 -13 -14 -5 -16 -30 -16 -176 0 -110 -3 -167 -10
-163 -16 10 -13 317 3 339 10 14 35 19 122 25 61 5 116 6 123 5 8 -2 20 -4 28
-4z m144 -20 c21 -7 19 -8 -17 -9 -38 -1 -43 -4 -42 -23 1 -17 2 -19 6 -5 9
35 213 16 248 -23 16 -18 17 -41 11 -272 -9 -324 -12 -387 -17 -392 -2 -2 -64
-6 -137 -8 l-132 -3 0 366 c0 201 3 369 7 372 8 9 41 7 73 -3z m-443 -538 c-1
-97 -2 -15 -2 183 0 198 1 278 2 177 2 -101 2 -263 0 -360z m1833 503 c0 -13
-60 -15 -479 -15 -432 0 -525 5 -479 23 7 3 226 6 486 6 413 1 472 -1 472 -14z
m-2670 -71 c0 -24 -4 -34 -12 -32 -24 8 -22 68 2 68 5 0 10 -16 10 -36z m39
-156 c-1 -130 -4 -180 -10 -153 -12 58 -11 345 1 345 6 0 10 -70 9 -192z
m2311 58 c-2 -66 -2 -142 -1 -168 l1 -48 68 0 c61 1 65 2 48 15 -11 8 -14 15
-8 15 7 0 12 9 12 20 0 30 -28 24 -33 -7 -4 -26 -4 -26 -3 2 l1 30 72 3 73 3
6 -41 c6 -36 9 -40 35 -40 16 0 29 -4 29 -10 0 -7 -164 -9 -477 -8 l-478 2
320 6 c176 4 320 7 320 8 0 1 -1 81 -3 178 -3 132 0 174 8 169 8 -5 11 -45 10
-129z m-1380 114 c-13 -8 -11 -11 8 -16 12 -4 22 -11 22 -16 0 -5 -4 -6 -10
-3 -5 3 -10 2 -10 -4 0 -15 18 -23 25 -11 3 5 16 10 29 10 12 0 27 5 32 10 7
7 11 6 11 -5 0 -8 -7 -15 -16 -16 -16 -1 -34 -4 -60 -10 -7 -2 -21 10 -31 26
-18 31 -17 45 3 45 7 0 6 -4 -3 -10z m958 -26 c3 -34 -18 -60 -43 -50 -9 3
-15 18 -15 39 0 40 7 49 35 45 14 -2 21 -12 23 -34z m-2069 -30 c50 -42 38
-104 -24 -130 -45 -19 -90 -8 -120 28 -33 39 -32 63 4 99 39 39 96 40 140 3z
m594 -1 c-57 -2 -149 -2 -205 0 -57 1 -11 3 102 3 113 0 159 -2 103 -3z m1807
-3 c0 -12 -206 -12 -235 0 -13 5 27 9 108 9 78 1 127 -3 127 -9z m375 0 c-8
-13 -205 -13 -225 0 -10 7 25 10 108 10 80 0 121 -4 117 -10z m-2635 -115 c0
-103 -2 -115 -17 -115 -16 0 -18 11 -15 115 3 92 6 115 18 115 11 0 14 -22 14
-115z m1765 105 c4 -6 -12 -10 -40 -10 -28 0 -44 4 -40 10 3 6 21 10 40 10 19
0 37 -4 40 -10z m-2155 -157 c0 -87 5 -165 10 -173 8 -13 76 -16 482 -20 260
-3 466 -7 458 -10 -8 -3 -226 -6 -483 -5 -452 0 -469 1 -483 19 -21 30 -21
346 1 346 13 0 15 -24 15 -157z m2615 127 c-3 -5 -28 -10 -56 -10 -27 0 -49 5
-49 10 0 6 25 10 56 10 34 0 53 -4 49 -10z m294 7 c-2 -1 -13 -9 -24 -17 -19
-14 -19 -14 -6 3 7 9 18 17 24 17 6 0 8 -1 6 -3z m-619 -167 c6 0 10 31 10 69
0 42 5 73 12 77 8 5 9 0 5 -17 -4 -13 -7 -50 -7 -82 0 -61 -12 -77 -47 -62
-12 5 -14 9 -5 12 8 3 13 32 14 86 l2 82 3 -82 c2 -46 8 -83 13 -83z m668 127
c15 -2 5 -4 -23 -4 -27 -1 -42 1 -32 4 9 2 18 12 18 21 1 16 2 16 6 0 2 -9 16
-19 31 -21z m47 13 c11 -36 -12 -51 -73 -48 -39 2 -57 8 -60 18 -4 12 -2 13 9
3 18 -18 94 -16 109 2 10 12 10 18 0 30 -8 9 -8 15 -2 15 6 0 14 -9 17 -20z
m-2201 4 c17 -7 22 -34 6 -34 -5 0 -9 6 -7 13 1 7 -11 13 -33 13 -26 1 -28 1
-7 -3 15 -2 27 -9 27 -14 0 -6 7 -17 15 -25 15 -16 20 -89 9 -132 -6 -21 -12
-23 -58 -20 l-51 3 -3 45 c-2 24 -1 59 3 77 5 30 9 33 43 34 22 1 29 3 17 6
-11 3 -24 10 -28 17 -6 8 -10 8 -14 -1 -2 -7 -10 -13 -16 -13 -7 1 -1 10 12
20 23 20 56 25 85 14z m1450 -19 c-4 -8 -8 -15 -10 -15 -2 0 -4 7 -4 15 0 8 4
15 10 15 5 0 7 -7 4 -15z m396 -60 l0 -75 -90 0 -90 0 0 75 0 75 90 0 90 0 0
-75z m-1290 53 c0 -4 -4 -8 -9 -8 -6 0 -12 4 -15 8 -3 5 1 9 9 9 8 0 15 -4 15
-9z m60 4 c0 -5 -7 -9 -15 -9 -8 0 -15 4 -15 9 0 4 7 8 15 8 8 0 15 -4 15 -8z
m40 -2 c0 -5 -4 -10 -10 -10 -5 0 -10 5 -10 10 0 6 5 10 10 10 6 0 10 -4 10
-10z m690 -60 l0 -60 -40 0 -40 0 0 60 0 60 40 0 40 0 0 -60z m-755 20 c-3 -5
-1 -10 6 -10 7 0 10 -3 6 -6 -9 -9 -28 6 -22 17 4 5 8 9 11 9 3 0 2 -4 -1 -10z
m33 -15 c-3 -3 -9 2 -12 12 -6 14 -5 15 5 6 7 -7 10 -15 7 -18z m-510 -87 c2
-22 -1 -38 -7 -38 -6 0 -11 12 -12 28 0 15 -3 21 -6 15 -2 -7 -9 -13 -15 -13
-6 0 -7 7 -4 16 3 8 2 12 -4 9 -15 -10 -12 -35 5 -35 8 0 15 -4 15 -10 0 -5
-13 -10 -30 -10 -27 0 -30 3 -30 34 0 38 10 46 55 43 27 -2 30 -6 33 -39z
m444 20 c-7 -7 -12 -8 -12 -2 0 6 3 14 7 17 3 4 9 5 12 2 2 -3 -1 -11 -7 -17z
m65 2 c4 -13 3 -13 -6 0 -6 8 -11 10 -11 4 0 -6 -7 -11 -15 -11 -8 0 -15 6
-15 12 0 18 43 13 47 -5z m1021 3 c-10 -2 -28 -2 -40 0 -13 2 -5 4 17 4 22 1
32 -1 23 -4z m-1808 -37 l0 -34 59 -7 c33 -4 94 -4 135 0 54 5 76 4 76 -4 0
-8 -59 -11 -200 -11 -110 0 -203 0 -207 -1 -4 0 -9 4 -11 10 -2 7 22 11 70 11
51 0 68 3 58 10 -8 5 -27 10 -42 10 -22 0 -28 5 -29 23 l-2 22 -4 -22 c-4 -19
-11 -23 -39 -23 -34 0 -39 6 -28 34 5 13 22 16 85 16 l79 0 0 -34z m-440 14
c17 -11 16 -11 -22 -16 -28 -3 -39 10 -15 19 18 8 21 8 37 -3z m1068 -25 c-2
-14 -7 -26 -13 -26 -5 0 -11 12 -13 26 -2 18 1 25 13 25 12 0 15 -7 13 -25z
m-858 -38 l0 -44 -45 -1 -45 0 0 44 0 44 45 0 45 0 0 -43z m-152 15 c-3 -14
-18 -17 -101 -19 -74 -1 -97 2 -97 12 0 19 15 22 113 23 78 1 88 -1 85 -16z
m682 -12 c0 -5 -5 -10 -11 -10 -5 0 -7 5 -4 10 3 6 8 10 11 10 2 0 4 -4 4 -10z
m-710 -30 c0 -6 -32 -10 -75 -10 -43 0 -75 4 -75 10 0 6 32 10 75 10 43 0 75
-4 75 -10z m2775 0 c14 -6 -1 -9 -47 -9 -39 -1 -68 3 -68 9 0 12 87 12 115 0z
m-2538 -32 c-3 -8 -6 -5 -6 6 -1 11 2 17 5 13 3 -3 4 -12 1 -19z m3131 -294
c7 -2 10 -8 7 -14 -7 -12 -1460 -13 -1542 -1 -29 4 -53 4 -53 0 0 -4 -550 -7
-1222 -6 -963 2 -1222 5 -1225 14 -4 10 154 13 754 15 953 4 3264 -2 3281 -8z
m-1560 -50 c16 -5 22 -13 20 -28 l-3 -21 -537 -3 -537 -2 -6 21 c-5 14 -2 25
6 30 16 10 1021 12 1057 3z"/>
<path d="M4230 3388 c64 -18 78 -26 106 -64 l29 -37 3 -418 c3 -409 2 -419
-18 -439 -19 -19 -31 -20 -403 -20 l-383 0 -29 -30 -29 -30 -235 0 -236 -1
-20 -32 c-11 -17 -28 -33 -37 -35 -10 -2 -59 15 -110 38 -112 51 -196 70 -308
70 -112 0 -196 -19 -327 -73 -60 -25 -117 -48 -127 -51 -14 -5 -31 6 -68 44
l-48 50 -588 0 c-350 0 -593 4 -602 10 -10 6 -17 36 -22 97 -8 112 -10 611 -2
651 9 43 52 91 99 107 38 14 39 14 10 14 -36 1 -80 -27 -106 -65 -18 -27 -19
-54 -19 -411 l0 -382 25 -20 c25 -19 40 -20 609 -19 l583 1 42 -46 c24 -25 51
-49 60 -52 10 -3 67 15 127 41 152 64 237 84 353 84 118 0 193 -17 311 -70 50
-23 100 -40 113 -38 12 2 31 17 42 35 11 17 30 34 41 37 12 3 118 3 236 0
l215 -6 31 31 30 31 375 0 375 0 32 26 31 26 -3 422 -3 422 -27 41 c-30 45
-80 73 -130 72 l-33 -1 35 -10z"/>
<path d="M2505 3348 c23 -103 55 -105 55 -5 0 31 -3 38 -10 27 -5 -8 -10 -26
-11 -40 -1 -20 -3 -17 -11 13 -12 46 -32 50 -23 5z"/>
<path d="M2588 3374 c-13 -12 -9 -69 5 -88 23 -31 50 -16 60 33 6 29 5 47 -2
54 -8 8 -11 2 -11 -19 0 -37 -26 -77 -34 -54 -3 8 -7 30 -8 48 -2 19 -6 30
-10 26z"/>
<path d="M2680 3326 c0 -31 5 -56 10 -56 6 0 10 22 10 49 0 28 -4 53 -10 56
-6 4 -10 -15 -10 -49z"/>
<path d="M2734 3354 c4 -15 10 -39 13 -55 6 -33 17 -37 32 -11 10 16 10 16 11
0 0 -10 6 -18 14 -18 16 0 21 13 32 73 8 46 -9 50 -23 5 l-10 -33 -7 33 c-4
17 -12 32 -17 32 -5 0 -9 -15 -10 -32 l-1 -33 -10 33 c-13 38 -33 44 -24 6z"/>
<path d="M2871 3343 c-6 -21 -11 -46 -11 -55 0 -21 16 -24 23 -5 4 10 7 10 18
0 23 -23 26 -14 14 39 -14 64 -30 71 -44 21z m25 -30 c-10 -10 -19 5 -10 18 6
11 8 11 12 0 2 -7 1 -15 -2 -18z"/>
<path d="M3208 3150 c-4 -14 -8 -50 -8 -81 0 -77 -19 -259 -29 -277 -5 -8 -25
49 -55 155 -57 203 -61 213 -83 213 -49 -1 -49 -8 16 -235 34 -119 60 -219 57
-222 -2 -3 -32 -2 -64 2 l-60 7 -6 41 c-8 48 -30 87 -50 87 -15 0 -43 -65 -48
-110 -2 -20 -9 -26 -35 -28 -19 -2 -33 1 -33 8 0 5 23 102 51 215 28 112 49
211 45 220 -8 21 -53 19 -60 -2 -3 -10 -21 -85 -41 -168 -44 -188 -65 -253
-75 -234 -4 8 -26 88 -49 179 -65 260 -58 240 -91 240 -16 0 -31 -4 -34 -8 -3
-5 21 -108 53 -231 l58 -222 -35 3 -35 3 -47 170 c-75 272 -76 273 -116 281
-20 4 -40 2 -48 -5 -12 -10 -41 -100 -118 -366 -23 -76 -25 -80 -55 -83 l-31
-3 9 38 c60 253 89 384 89 402 0 17 -6 21 -29 21 -32 0 -25 21 -78 -217 -10
-46 -20 -83 -24 -83 -3 0 -14 66 -25 148 l-19 147 -37 3 c-21 2 -38 1 -38 -2
0 -2 18 -98 40 -213 22 -114 40 -216 40 -225 0 -16 -10 -18 -80 -18 l-80 0 -2
223 -3 222 -37 3 -38 3 -2 -223 -3 -223 -131 -3 -130 -3 22 123 c43 229 53
350 28 326 -6 -6 -28 -87 -66 -243 l-22 -90 -33 140 c-50 212 -45 200 -76 203
-22 3 -27 -1 -27 -19 0 -21 53 -259 85 -382 9 -34 10 -54 3 -58 -6 -4 -7 -22
-1 -50 l9 -44 1114 0 1115 0 1 42 c0 24 4 46 7 50 4 3 7 93 7 198 0 105 3 195
7 198 3 4 11 -3 17 -16 7 -13 23 -23 39 -25 24 -3 27 0 27 27 0 40 -27 57
-104 65 l-58 6 3 -225 4 -225 -37 0 -38 0 0 219 0 220 28 4 c15 2 -3 5 -40 6
l-67 1 -3 -77 c-2 -44 -7 -78 -13 -77 -5 1 -23 35 -39 78 -22 60 -34 78 -52
82 -54 14 -54 13 -54 -231 l0 -225 -45 0 -45 0 0 225 0 225 -30 0 c-41 0 -42
-12 -38 -249 2 -132 -1 -201 -7 -201 -7 0 -9 71 -7 208 2 114 2 221 0 237 -3
30 -3 30 -10 5z m-749 -184 l28 -106 -34 0 c-27 0 -34 -4 -31 -17 2 -13 16
-20 42 -23 41 -5 40 -3 60 -82 l6 -28 -110 0 c-101 0 -111 2 -106 18 3 9 16
53 30 97 13 44 36 120 51 169 14 48 29 86 32 83 3 -3 17 -53 32 -111z m1138
68 c-3 -3 -12 -4 -19 -1 -8 3 -5 6 6 6 11 1 17 -2 13 -5z m-68 -211 l28 -123
-54 0 -53 0 0 158 c0 87 3 162 7 166 13 12 43 -73 72 -201z m63 152 c3 -14 1
-25 -3 -25 -5 0 -9 11 -9 25 0 14 2 25 4 25 2 0 6 -11 8 -25z m-652 -228 c0
-10 -4 -15 -10 -12 -5 3 -10 18 -10 33 0 21 2 24 10 12 5 -8 10 -23 10 -33z
m-400 -67 c0 -7 -150 -10 -430 -10 -280 0 -430 3 -430 10 0 7 150 10 430 10
280 0 430 -3 430 -10z m570 0 c0 -6 -57 -10 -151 -10 -97 0 -148 4 -144 10 4
6 65 10 151 10 89 0 144 -4 144 -10z"/>
<path d="M1617 3153 c-4 -3 -6 -29 -6 -57 l2 -51 7 55 c7 59 7 64 -3 53z"/>
<path d="M1723 3119 c-12 -31 -10 -49 6 -49 10 0 31 67 23 74 -11 12 -18 5
-29 -25z"/>
<path d="M1127 3000 c-90 -16 -101 -40 -77 -179 20 -115 38 -144 89 -144 68 0
132 83 145 188 6 48 4 52 -35 98 -42 49 -44 50 -122 37z m105 -47 c42 -41 43
-48 27 -123 -12 -58 -53 -111 -99 -130 -26 -11 -33 -10 -50 5 -21 19 -29 45
-50 158 -12 65 -11 70 8 90 18 17 50 27 117 36 5 0 26 -16 47 -36z"/>
<path d="M1137 2962 c-64 -4 -73 -23 -53 -117 14 -67 39 -105 70 -105 30 0 73
39 84 77 30 100 -6 151 -101 145z m73 -42 c20 -20 23 -45 11 -90 -5 -17 -9
-21 -15 -12 -4 7 -28 12 -57 12 -27 0 -49 5 -49 10 0 6 23 10 51 10 31 0 48 4
44 10 -3 6 -26 10 -50 10 -40 0 -45 3 -51 26 -8 32 7 44 59 44 24 0 44 -7 57
-20z m-15 -130 c0 -8 -8 -16 -18 -18 -30 -6 -67 7 -67 24 0 12 10 14 43 12 29
-2 42 -8 42 -18z"/>
<path d="M3932 2963 c-26 -5 -20 -23 9 -23 17 0 19 -7 19 -64 0 -36 -5 -68
-11 -72 -7 -4 -10 5 -7 27 2 27 -1 34 -16 37 -14 3 -17 0 -12 -13 3 -9 6 -41
6 -71 l0 -54 90 0 91 0 -3 118 -3 117 -70 1 c-38 1 -80 0 -93 -3z m143 -58 c0
-40 0 -40 -42 -43 l-43 -3 0 46 0 46 43 -3 c42 -3 42 -3 42 -43z m-1 -71 c3
-9 6 -28 6 -44 0 -25 -4 -29 -40 -35 -22 -4 -54 -4 -71 0 -32 7 -32 8 -12 24
11 9 23 28 27 44 6 24 11 27 45 27 26 0 41 -5 45 -16z"/>
<path d="M1782 2512 c-9 -27 -8 -29 9 -25 20 6 24 20 10 41 -6 10 -11 6 -19
-16z"/>
<path d="M2060 2510 c0 -22 5 -30 18 -30 13 0 14 2 3 9 -8 5 -12 18 -8 30 3
12 1 21 -4 21 -5 0 -9 -13 -9 -30z"/>
<path d="M2284 2526 c-3 -8 -4 -23 -2 -33 3 -11 6 -6 9 15 6 34 2 42 -7 18z"/>
<path d="M2604 2525 c-9 -23 3 -45 23 -44 17 1 17 2 1 6 -21 5 -23 24 -6 41 9
9 9 12 0 12 -7 0 -15 -7 -18 -15z"/>
<path d="M2866 2531 c-3 -5 3 -11 15 -14 16 -4 18 -3 8 9 -13 16 -16 17 -23 5z"/>
<path d="M2950 2530 c0 -5 5 -10 10 -10 6 0 10 5 10 10 0 6 -4 10 -10 10 -5 0
-10 -4 -10 -10z"/>
<path d="M3072 2510 c0 -19 2 -27 5 -17 2 9 2 25 0 35 -3 9 -5 1 -5 -18z"/>
<path d="M1930 2521 c0 -6 5 -13 11 -17 8 -4 7 -9 -2 -15 -7 -4 -10 -11 -6
-16 12 -11 27 19 17 33 -6 6 -7 14 -3 17 3 4 1 7 -5 7 -7 0 -12 -4 -12 -9z"/>
<path d="M2002 2505 c0 -16 2 -22 5 -12 2 9 2 23 0 30 -3 6 -5 -1 -5 -18z"/>
<path d="M2146 2514 c-4 -9 -4 -19 -1 -22 2 -3 7 3 11 12 4 9 4 19 1 22 -2 3
-7 -3 -11 -12z"/>
<path d="M2210 2519 c0 -5 -4 -7 -10 -4 -6 3 -10 -4 -9 -17 0 -13 3 -17 6 -9
5 11 7 11 14 0 6 -10 9 -6 9 14 0 15 -2 27 -5 27 -3 0 -5 -5 -5 -11z"/>
<path d="M2412 2505 c0 -16 2 -22 5 -12 2 9 2 23 0 30 -3 6 -5 -1 -5 -18z"/>
<path d="M2442 2505 c0 -16 2 -22 5 -12 2 9 2 23 0 30 -3 6 -5 -1 -5 -18z"/>
<path d="M2511 2508 c-1 -22 4 -28 19 -28 15 0 20 7 20 25 0 14 -4 25 -9 25
-5 0 -7 -9 -4 -20 3 -11 1 -20 -5 -20 -6 0 -13 10 -15 23 -4 19 -4 18 -6 -5z"/>
<path d="M2685 2505 c0 -14 3 -25 8 -25 4 0 7 11 7 25 0 14 -3 25 -7 25 -5 0
-8 -11 -8 -25z"/>
<path d="M2775 2510 c11 -14 21 -27 22 -29 2 -2 3 9 2 25 0 16 -3 23 -6 16 -4
-10 -8 -10 -21 0 -12 9 -11 5 3 -12z"/>
<path d="M3022 2505 c0 -16 2 -22 5 -12 2 9 2 23 0 30 -3 6 -5 -1 -5 -18z"/>
<path d="M3140 2521 c0 -5 -2 -16 -5 -23 -4 -9 2 -14 15 -14 11 0 20 4 20 8 0
4 -4 8 -10 8 -5 0 -7 7 -4 15 4 8 1 15 -5 15 -6 0 -11 -4 -11 -9z"/>
<path d="M3220 2505 c0 -14 4 -25 9 -25 4 0 6 11 3 25 -2 14 -6 25 -8 25 -2 0
-4 -11 -4 -25z"/>
<path d="M2867 2483 c3 -7 6 -13 8 -13 1 0 7 6 13 13 8 10 6 13 -7 13 -11 0
-17 -6 -14 -13z"/>
<path d="M2950 2490 c0 -5 5 -10 10 -10 6 0 10 5 10 10 0 6 -4 10 -10 10 -5 0
-10 -4 -10 -10z"/>
<path d="M574 2205 c-3 -8 -3 -18 0 -24 5 -8 14 -8 45 -2 2 1 -2 7 -8 14 -6 8
-8 17 -4 20 3 4 -1 7 -11 7 -9 0 -19 -7 -22 -15z m13 -17 c-3 -8 -6 -5 -6 6
-1 11 2 17 5 13 3 -3 4 -12 1 -19z"/>
<path d="M632 2198 c2 -13 10 -23 18 -23 8 0 16 10 18 23 3 17 -2 22 -18 22
-16 0 -21 -5 -18 -22z m28 -3 c0 -8 -4 -15 -8 -15 -5 0 -9 7 -9 15 0 8 4 15 9
15 4 0 8 -7 8 -15z"/>
<path d="M580 2122 c0 -4 9 -8 20 -9 11 -1 20 2 20 8 0 5 -9 9 -20 9 -11 0
-20 -4 -20 -8z"/>
<path d="M630 2120 c0 -5 7 -10 15 -10 8 0 15 5 15 10 0 6 -7 10 -15 10 -8 0
-15 -4 -15 -10z"/>
<path d="M962 2075 c0 -16 2 -22 5 -12 2 9 2 23 0 30 -3 6 -5 -1 -5 -18z"/>
<path d="M2152 1558 c-8 -8 -11 -42 -10 -97 l2 -86 5 84 6 85 33 8 c17 5 32
11 32 13 0 10 -57 4 -68 -7z"/>
<path d="M2848 1843 c1 -104 5 -194 7 -200 6 -18 42 -16 49 3 3 9 6 93 6 188
0 180 -4 196 -44 196 -21 0 -21 -4 -18 -187z"/>
<path d="M2723 2014 c-10 -4 -13 -53 -13 -195 l0 -189 65 0 65 0 0 95 0 95
-46 0 c-30 0 -43 4 -38 11 3 6 24 9 46 7 l39 -4 -3 91 -3 90 -50 2 c-27 1 -56
0 -62 -3z"/>
<path d="M2728 1573 c-25 -6 -27 -138 -2 -147 20 -8 63 -8 103 0 l31 7 0 67
c0 53 -4 69 -16 74 -17 7 -89 6 -116 -1z m120 -75 l3 -58 -66 0 -65 0 0 60 0
61 63 -3 62 -3 3 -57z"/>
<path d="M3941 1708 c-1 -37 0 -38 34 -38 33 0 35 2 34 33 -1 17 -3 24 -6 14
-2 -9 -8 -15 -13 -12 -5 3 -11 1 -15 -5 -11 -18 -24 -11 -28 18 -3 22 -4 20
-6 -10z"/>
<path d="M3326 1984 c-10 -27 -7 -44 9 -44 10 0 15 10 15 30 0 32 -14 40 -24
14z"/>
<path d="M1182 1938 c-26 -13 -39 -54 -25 -77 13 -20 118 -28 139 -10 22 18
17 66 -8 83 -26 18 -73 20 -106 4z m98 -49 c0 -5 -22 -9 -50 -9 -27 0 -50 3
-50 8 0 4 23 8 50 9 28 0 50 -3 50 -8z"/>
<path d="M1652 1709 c2 -6 8 -10 13 -10 5 0 11 4 13 10 2 6 -4 11 -13 11 -9 0
-15 -5 -13 -11z"/>
<path d="M1387 1663 c-9 -8 12 -33 29 -33 7 0 16 5 20 12 4 7 3 8 -5 4 -7 -4
-19 -5 -29 -1 -14 5 -14 7 -2 15 8 6 10 10 4 10 -6 0 -14 -3 -17 -7z"/>
</g>
</svg>