<svg xmlns="http://www.w3.org/2000/svg" viewBox="0 21.850000381469727 224.89999389648438 35.19999694824219" data-asc="1.127"><g fill="#ffffff"><g fill="#ffffff" transform="translate(0, 0)"><path d="M14.95 22.05L14.95 23.60L0 23.60L0 22.05L14.95 22.05M42.65 22.05L42.65 23.60L27 23.60L27 22.05L42.65 22.05M21.05 57.05L6.25 22.90L8.20 22.90L21.40 53.75L34.55 22.90L36.40 22.90L21.55 57.05L21.05 57.05ZM48.05 56.35L48.05 32.80L49.70 32.80L49.70 56.35L48.05 56.35M42.00 56.35L42.00 54.80L55.80 54.80L55.80 56.35L42.00 56.35M42.00 34.30L42.00 32.80L49.70 32.80L49.70 34.30L42.00 34.30M48.20 25.85Q47.10 25.85 46.35 25.30Q45.60 24.75 45.60 23.90Q45.60 23.05 46.35 22.45Q47.10 21.85 48.20 21.85Q49.40 21.85 50.13 22.45Q50.85 23.05 50.85 23.90Q50.85 24.75 50.13 25.30Q49.40 25.85 48.20 25.85ZM71.60 57.05L60.20 33.35L62.10 33.35L71.90 54.10L81.60 33.35L83.25 33.35L72 57.05L71.60 57.05M56.15 34.35L56.15 32.80L67.60 32.80L67.60 34.35L61.85 34.35L61.20 34.35L56.15 34.35M76.30 34.35L76.30 32.80L87.80 32.80L87.80 34.35L82.30 34.35L81.65 34.35L76.30 34.35ZM112.30 56.70Q111.10 56.70 110.28 56.08Q109.45 55.45 109.03 54.30Q108.60 53.15 108.60 51.50L108.60 40.95Q108.60 38.20 107.63 36.63Q106.65 35.05 105.08 34.38Q103.50 33.70 101.60 33.70Q98.70 33.70 96.28 34.42Q93.85 35.15 91.55 36.15L91.10 34.60Q93.40 33.60 96.05 32.88Q98.70 32.15 101.60 32.15Q103.90 32.15 105.88 32.98Q107.85 33.80 109.05 35.73Q110.25 37.65 110.25 40.95L110.25 51.50Q110.25 53.35 110.80 54.25Q111.35 55.15 112.50 55.15Q113.05 55.15 113.55 54.93Q114.05 54.70 114.45 54.50L114.95 55.90Q114.55 56.20 113.88 56.45Q113.20 56.70 112.30 56.70M98.35 57Q96.10 57 94.13 56.15Q92.15 55.30 90.95 53.68Q89.75 52.05 89.75 49.75Q89.75 47.50 91.03 45.80Q92.30 44.10 94.53 43.17Q96.75 42.25 99.60 42.25Q102.40 42.25 104.75 42.83Q107.10 43.40 109.65 44.25L109.65 45.80Q106.90 44.80 104.50 44.33Q102.10 43.85 99.60 43.80Q97.50 43.75 95.63 44.42Q93.75 45.10 92.58 46.42Q91.40 47.75 91.40 49.75Q91.40 51.60 92.38 52.88Q93.35 54.15 94.95 54.80Q96.55 55.45 98.35 55.45Q100.25 55.45 102.15 54.80Q104.05 54.15 105.95 53Q107.85 51.85 109.65 50.40L109.65 51.95Q107.85 53.30 105.93 54.45Q104.00 55.60 102.08 56.30Q100.15 57 98.35 57ZM127.05 22.05L127.05 23.60L112.10 23.60L112.10 22.05L127.05 22.05M154.75 22.05L154.75 23.60L139.10 23.60L139.10 22.05L154.75 22.05M133.15 57.05L118.35 22.90L120.30 22.90L133.50 53.75L146.65 22.90L148.50 22.90L133.65 57.05L133.15 57.05ZM160.15 56.35L160.15 32.80L161.80 32.80L161.80 56.35L160.15 56.35M154.10 56.35L154.10 54.80L167.90 54.80L167.90 56.35L154.10 56.35M154.10 34.30L154.10 32.80L161.80 32.80L161.80 34.30L154.10 34.30M160.30 25.85Q159.20 25.85 158.45 25.30Q157.70 24.75 157.70 23.90Q157.70 23.05 158.45 22.45Q159.20 21.85 160.30 21.85Q161.50 21.85 162.22 22.45Q162.95 23.05 162.95 23.90Q162.95 24.75 162.22 25.30Q161.50 25.85 160.30 25.85ZM196.40 56.35L196.40 41.20Q196.40 39.35 196.03 37.95Q195.65 36.55 194.85 35.63Q194.05 34.70 192.88 34.23Q191.70 33.75 190.10 33.75Q188.55 33.75 186.95 34.33Q185.35 34.90 183.75 35.90Q182.15 36.90 180.63 38.25Q179.10 39.60 177.70 41.15L177.70 39.55Q179.05 38.05 180.53 36.73Q182 35.40 183.60 34.38Q185.20 33.35 186.90 32.77Q188.60 32.20 190.45 32.20Q192.15 32.20 193.55 32.73Q194.95 33.25 195.95 34.33Q196.95 35.40 197.50 37.02Q198.05 38.65 198.05 40.90L198.05 56.35L196.40 56.35M170.90 56.35L170.90 54.80L183.55 54.80L183.55 56.35L170.90 56.35M176.95 56.35L176.95 32.80L178.60 32.80L178.60 56.35L176.95 56.35M170.90 34.35L170.90 32.80L178.60 32.80L178.60 34.35L170.90 34.35M191.45 56.35L191.45 54.80L203.50 54.80L203.50 56.35L191.45 56.35ZM217.95 57.05Q216.15 57.05 214.55 56.27Q212.95 55.50 211.97 53.77Q211 52.05 211 49.15L211 26.25L212.65 26.25L212.65 49.30Q212.65 51.80 213.47 53.15Q214.30 54.50 215.55 55Q216.80 55.50 217.95 55.50Q219.85 55.50 221.38 54.98Q222.90 54.45 224.20 53.70L224.90 55.10Q223.50 55.85 221.83 56.45Q220.15 57.05 217.95 57.05M204.95 34.35L204.95 32.80L221.85 32.80L221.85 34.35L204.95 34.35Z" stroke-width="16"/></g></g></svg>
